<html>
<head>
<meta charset="UTF-8">
<meta name="viewport" content="width=device-width, initial-scale=1.0"/>

<style>
.comment
{
    padding-left: 20px;
    margin-top: 4px;
    margin-right: 4px;
    margin-bottom: 4px;
    border: 2px #000 solid;
}
.submission
{
    border: 4px #00f solid;
    padding-left: 20px;
}
.hidden
{
    display: none;
}
</style>
</head>
<body><div class="submission" id="t3_5wa7ut">
    <p class="userinfo">
        <a href="https://www.reddit.com/u/Cartmanishere">Cartmanishere</a>
        <span class="score"> | 43 points</span>
        <span class="timestamp"> | Feb 26 2017 14:05:31</span>
    </p>
    <strong>[MOVIE] Doctor Strange 1080p x265 + Extras [7.90GB]</strong>
    <p><p>Link: #F!LwczxRSB!i4oECsXKXhZ7zKAStOz-SA</p></p>
    <p class="toolbar">
        <a href="https://www.reddit.com/r/megalinks/comments/5wa7ut">permalink</a>
    </p>
</div>
<div class="comment" id="t1_de8jjzh">
    <p class="userinfo">
        <a
        class="toggle_hide_button"
        href="javascript:void(0)"
        onclick="toggle_collapse(this.parentElement.parentElement)">[-]
        </a>
        <a href="https://www.reddit.com/u/AlbertZhuFG">AlbertZhuFG</a>
        <span class="score"> | 5 points</span>
        <span class="timestamp"> | Feb 26 2017 15:22:05</span>
    </p>
    <div class="collapsible">
        <p>What's the difference between the two 1080p files?</p>
        <p class="toolbar">
            <a href="https://www.reddit.com/r/megalinks/comments/5wa7ut/_/de8jjzh">permalink</a>
        </p>
        <div class="comment" id="t1_de8mga6">
    <p class="userinfo">
        <a
        class="toggle_hide_button"
        href="javascript:void(0)"
        onclick="toggle_collapse(this.parentElement.parentElement)">[-]
        </a>
        <a href="https://www.reddit.com/u/Cartmanishere">Cartmanishere</a>
        <span class="score"> | 7 points</span>
        <span class="timestamp"> | Feb 26 2017 16:34:53</span>
    </p>
    <div class="collapsible">
        <p>They are encoded by two different encoders. I can quote the technical details of the two. But many people just prefer one over the other based on who encoded it. </p>
<blockquote>
<p>Doctor Strange (2016) (1080p BluRay x265 HEVC 10bit 7.1 Qman) [UTR]</p>
</blockquote>
<pre><code>General
Format : Matroska
Format version : Version 4 / Version 2
File size : 2.31 GiB
Duration : 1 h 54 min
Overall bit rate : 2 879 kb/s
Encoded date : UTC 2017-02-21 04:07:29
Writing application : mkvmerge v9.9.0 (\'Pick Up\') 64bit
Writing library : libebml v1.3.4 + libmatroska v1.4.5

Video
ID : 1
Format : HEVC
Format/Info : High Efficiency Video Coding
Format profile : Main 10@L4@Main
Codec ID : V_MPEGH/ISO/HEVC
Duration : 1 h 54 min
Bit rate : 2 076 kb/s
Width : 1 920 pixels
Height : 804 pixels
Display aspect ratio : 2.40:1
Frame rate mode : Constant
Frame rate : 23.976 (24000/1001) FPS
Color space : YUV
Chroma subsampling : 4:2:0
Bit depth : 10 bits
Bits/(Pixel*Frame) : 0.056
Stream size : 1.67 GiB (72%)
Writing library : x265 2.3+6-db913efb1a59:[Windows][GCC 6.3.0][64 bit] 10bit
Encoding settings : cpuid=1173503 / frame-threads=2 / numa-pools=4 / wpp / no-pmode / no-pme / no-psnr / no-ssim / log-level=2 / input-csp=1 / input-res=1920x804 / interlace=0 / total-frames=165400 / level-idc=0 / high-tier=1 / uhd-bd=0 / ref=4 / no-allow-non-conformance / no-repeat-headers / annexb / no-aud / no-hrd / info / hash=0 / no-temporal-layers / open-gop / min-keyint=23 / keyint=250 / bframes=8 / b-adapt=2 / b-pyramid / bframe-bias=0 / rc-lookahead=50 / lookahead-slices=4 / scenecut=40 / no-intra-refresh / ctu=64 / min-cu-size=8 / no-rect / no-amp / max-tu-size=32 / tu-inter-depth=1 / tu-intra-depth=1 / limit-tu=0 / rdoq-level=2 / dynamic-rd=0.00 / signhide / no-tskip / nr-intra=0 / nr-inter=0 / no-constrained-intra / no-strong-intra-smoothing / max-merge=3 / limit-refs=3 / limit-modes / me=3 / subme=3 / merange=57 / temporal-mvp / weightp / no-weightb / no-analyze-src-pics / deblock=-1:-1 / sao / no-sao-non-deblock / rd=4 / no-early-skip / no-rskip / no-fast-intra / no-tskip-fast / no-cu-lossless / b-intra / rdpenalty=0 / psy-rd=1.00 / psy-rdoq=5.00 / no-rd-refine / analysis-mode=0 / no-lossless / cbqpoffs=0 / crqpoffs=0 / rc=crf / crf=20.0 / qcomp=0.60 / qpstep=4 / stats-write=0 / stats-read=0 / ipratio=1.40 / pbratio=1.30 / aq-mode=3 / aq-strength=0.80 / cutree / zone-count=0 / no-strict-cbr / qg-size=32 / no-rc-grain / qpmax=69 / qpmin=0 / sar=0 / overscan=0 / videoformat=5 / range=0 / colorprim=2 / transfer=2 / colormatrix=2 / chromaloc=0 / display-window=0 / max-cll=0,0 / min-luma=0 / max-luma=1023 / log2-max-poc-lsb=8 / vui-timing-info / vui-hrd-info / slices=1 / opt-qp-pps / opt-ref-list-length-pps / no-multi-pass-opt-rps / scenecut-bias=0.05 / no-opt-cu-delta-qp / no-aq-motion / no-hdr / no-hdr-opt / Capture-colorprim=3
Language : English
Default : Yes
Forced : No

Audio #1
ID : 2
Format : AAC
Format/Info : Advanced Audio Codec
Format profile : LC
Codec ID : A_AAC
Duration : 1 h 54 min
Bit rate : 576 kb/s
Channel(s) : 7 channels
Channel(s)_Original : 8 channels
Channel positions : Front: L C R, Side: L R, Back: L R, LFE
Sampling rate : 48.0 kHz
Frame rate : 46.875 FPS (1024 spf)
Compression mode : Lossy
Delay relative to video : 9 ms
Stream size : 474 MiB (20%)
Language : English
Default : Yes
Forced : No

Audio #2
ID : 3
Format : AC-3
Format/Info : Audio Coding 3
Mode extension : CM (complete main)
Format settings, Endianness : Big
Codec ID : A_AC3
Duration : 1 h 54 min
Bit rate mode : Constant
Bit rate : 192 kb/s
Channel(s) : 2 channels
Channel positions : Front: L R
Sampling rate : 48.0 kHz
Frame rate : 31.250 FPS (1536 spf)
Bit depth : 16 bits
Compression mode : Lossy
Stream size : 158 MiB (7%)
Language : English
Default : No
Forced : No
</code></pre>
<blockquote>
<p>Doctor Strange (2016) (1080p Bluray x265 HEVC 10bit AAC 7.1 Tigole)</p>
</blockquote>
<pre><code>General
Format : Matroska
Format version : Version 4 / Version 2
File size : 2.43 GiB
Duration : 1 h 54 min
Overall bit rate : 3 030 kb/s
Movie name : Doctor Strange
Encoded date : UTC 2017-02-18 13:51:40
Writing application : mkvmerge v9.6.0 (\'Slave To Your Mind\') 64bit
Writing library : libebml v1.3.4 + libmatroska v1.4.5

Video
ID : 1
Format : HEVC
Format/Info : High Efficiency Video Coding
Format profile : Main 10@L4@Main
Codec ID : V_MPEGH/ISO/HEVC
Duration : 1 h 54 min
Bit rate : 2 514 kb/s
Width : 1 920 pixels
Height : 804 pixels
Display aspect ratio : 2.40:1
Frame rate mode : Constant
Frame rate : 23.976 (24000/1001) FPS
Color space : YUV
Chroma subsampling : 4:2:0
Bit depth : 10 bits
Bits/(Pixel*Frame) : 0.068
Stream size : 2.02 GiB (83%)
Writing library : x265 2.2+30-fa52b516f5ff:[Windows][GCC 6.2.0][64 bit] 10bit
Encoding settings : cpuid=1173503 / frame-threads=3 / numa-pools=8 / wpp / no-pmode / no-pme / no-psnr / no-ssim / log-level=2 / input-csp=1 / input-res=1920x804 / interlace=0 / total-frames=165400 / level-idc=0 / high-tier=1 / uhd-bd=0 / ref=4 / no-allow-non-conformance / no-repeat-headers / annexb / no-aud / no-hrd / info / hash=0 / no-temporal-layers / open-gop / min-keyint=23 / keyint=250 / bframes=4 / b-adapt=2 / b-pyramid / bframe-bias=0 / rc-lookahead=25 / lookahead-slices=4 / scenecut=40 / no-intra-refresh / ctu=64 / min-cu-size=8 / rect / no-amp / max-tu-size=32 / tu-inter-depth=1 / tu-intra-depth=1 / limit-tu=0 / rdoq-level=2 / complex-analysis=0.00 / signhide / no-tskip / nr-intra=0 / nr-inter=0 / no-constrained-intra / strong-intra-smoothing / max-merge=3 / limit-refs=3 / limit-modes / me=3 / subme=3 / merange=57 / temporal-mvp / weightp / no-weightb / no-analyze-src-pics / deblock=0:0 / sao / no-sao-non-deblock / rd=4 / no-early-skip / rskip / no-fast-intra / no-tskip-fast / no-cu-lossless / no-b-intra / rdpenalty=0 / psy-rd=2.00 / psy-rdoq=1.00 / no-rd-refine / analysis-mode=0 / no-lossless / cbqpoffs=0 / crqpoffs=0 / rc=abr / bitrate=2514 / qcomp=0.60 / qpstep=4 / stats-write=0 / stats-read=2 / cplxblur=20.0 / qblur=0.5 / ipratio=1.40 / pbratio=1.30 / aq-mode=3 / aq-strength=1.00 / cutree / zone-count=0 / no-strict-cbr / qg-size=32 / no-rc-grain / qpmax=69 / qpmin=0 / sar=0 / overscan=0 / videoformat=5 / range=0 / colorprim=2 / transfer=2 / colormatrix=2 / chromaloc=0 / display-window=0 / max-cll=0,0 / min-luma=0 / max-luma=1023 / log2-max-poc-lsb=8 / vui-timing-info / vui-hrd-info / slices=1 / opt-qp-pps / opt-ref-list-length-pps / no-multi-pass-opt-rps / scenecut-bias=0.05 / no-opt-cu-delta-qp / no-aq-motion
Default : Yes
Forced : No

Audio #1
ID : 2
Format : AAC
Format/Info : Advanced Audio Codec
Format profile : LC
Codec ID : A_AAC
Duration : 1 h 54 min
Bit rate : 398 kb/s
Channel(s) : 8 channels
Channel positions : Front: L C R, Side: 4, LFE
Sampling rate : 48.0 kHz
Frame rate : 46.875 FPS (1024 spf)
Compression mode : Lossy
Delay relative to video : 20 ms
Stream size : 327 MiB (13%)
Language : English
Default : Yes
Forced : No

Audio #2
ID : 3
Format : AAC
Format/Info : Advanced Audio Codec
Format profile : HE-AAC / LC
Codec ID : A_AAC
Duration : 1 h 54 min
Bit rate : 66.2 kb/s
Channel(s) : 2 channels
Channel positions : Front: L R
Sampling rate : 48.0 kHz / 24.0 kHz
Frame rate : 23.438 FPS (1024 spf)
Compression mode : Lossy
Delay relative to video : 40 ms
Stream size : 54.1 MiB (2%)
Title : Commentary
Language : English
Default : No
Forced : No
</code></pre>
        <p class="toolbar">
            <a href="https://www.reddit.com/r/megalinks/comments/5wa7ut/_/de8mga6">permalink</a>
        </p>
        <div class="comment" id="t1_de904h3">
    <p class="userinfo">
        <a
        class="toggle_hide_button"
        href="javascript:void(0)"
        onclick="toggle_collapse(this.parentElement.parentElement)">[-]
        </a>
        <a href="https://www.reddit.com/u/ForceBlade">ForceBlade</a>
        <span class="score"> | 3 points</span>
        <span class="timestamp"> | Feb 26 2017 21:35:03</span>
    </p>
    <div class="collapsible">
        <blockquote>
<p>Bit rate : 398 kb/s</p>
</blockquote>
<pre><code> (1080p Bluray x265 HEVC 10bit AAC 7.1 Tigole)
</code></pre>
<p>How can they say all that when it's that low</p>
        <p class="toolbar">
            <a href="https://www.reddit.com/r/megalinks/comments/5wa7ut/_/de904h3">permalink</a>
        </p>
        
    </div>
</div>
    </div>
</div>
    </div>
</div>

<div class="comment" id="t1_de8xfua">
    <p class="userinfo">
        <a
        class="toggle_hide_button"
        href="javascript:void(0)"
        onclick="toggle_collapse(this.parentElement.parentElement)">[-]
        </a>
        [deleted]
        <span class="score"> | 1 points</span>
        <span class="timestamp"> | Feb 26 2017 20:36:24</span>
    </p>
    <div class="collapsible">
        <p>Thank you so much!!</p>
        <p class="toolbar">
            <a href="https://www.reddit.com/r/megalinks/comments/5wa7ut/_/de8xfua">permalink</a>
        </p>
        
    </div>
</div>

<div class="comment" id="t1_de9uwat">
    <p class="userinfo">
        <a
        class="toggle_hide_button"
        href="javascript:void(0)"
        onclick="toggle_collapse(this.parentElement.parentElement)">[-]
        </a>
        <a href="https://www.reddit.com/u/blobacus">blobacus</a>
        <span class="score"> | 1 points</span>
        <span class="timestamp"> | Feb 27 2017 12:58:09</span>
    </p>
    <div class="collapsible">
        <p>This may sound stupid, but I can't get the correct audio to play. I. An only get the directors cut audio to play even tho I have the option for both audio sets, does anyone know how to fix this? </p>
        <p class="toolbar">
            <a href="https://www.reddit.com/r/megalinks/comments/5wa7ut/_/de9uwat">permalink</a>
        </p>
        
    </div>
</div>
</body>

<script>
function toggle_collapse(comment_div)
{
    var button = comment_div.getElementsByClassName("toggle_hide_button")[0];
    var collapsible = comment_div.getElementsByClassName("collapsible")[0];
    if (collapsible.classList.contains("hidden"))
    {
        collapsible.classList.remove("hidden");
        button.innerText = "[-]";
    }
    else
    {
        collapsible.classList.add("hidden");
        button.innerText = "[+]";
    }
}
</script>
</html>
